
<svg id="e5cgjh8vmpyc1" xmlns="http://www.w3.org/2000/svg" xmlns:xlink="http://www.w3.org/1999/xlink" viewBox="0 0 1270 507.990000" shape-rendering="geometricPrecision" text-rendering="geometricPrecision"><style><![CDATA[#e5cgjh8vmpyc6_to {animation: e5cgjh8vmpyc6_to__to 4000ms linear infinite normal forwards}@keyframes e5cgjh8vmpyc6_to__to { 0% {transform: translate(-0.003006px,-488.517602px)} 3.333333% {transform: translate(-0.003006px,-0.001812px)} 4.666667% {transform: translate(-0.003006px,-40.001812px)} 6.333333% {transform: translate(-0.003006px,-0.001812px)} 7.833333% {transform: translate(-0.003006px,-20.001812px)} 9.500000% {transform: translate(-0.003006px,-0.001812px)} 100% {transform: translate(-0.003006px,-0.001812px)} }#e5cgjh8vmpyc7_to {animation: e5cgjh8vmpyc7_to__to 4000ms linear infinite normal forwards}@keyframes e5cgjh8vmpyc7_to__to { 0% {transform: translate(636.956987px,253.985000px)} 35% {transform: translate(636.956987px,253.985000px)} 38.333333% {transform: translate(1025.717362px,248.920836px)} 39.666667% {transform: translate(1095.792124px,248.920836px)} 41% {transform: translate(1025.717362px,248.920836px)} 42.166667% {transform: translate(1055.126112px,248.920836px)} 42.333333% {transform: translate(1059.327362px,248.920836px)} 43.333333% {transform: translate(1025.717362px,248.920836px)} 100% {transform: translate(1025.717362px,248.920836px)} }#e5cgjh8vmpyc7 {animation: e5cgjh8vmpyc7_c_o 4000ms linear infinite normal forwards}@keyframes e5cgjh8vmpyc7_c_o { 0% {opacity: 0} 30.833333% {opacity: 0} 35.500000% {opacity: 0} 36.666667% {opacity: 1} 43.333333% {opacity: 1} 100% {opacity: 1} }#e5cgjh8vmpyc11_ts {animation: e5cgjh8vmpyc11_ts__ts 4000ms linear infinite normal forwards}@keyframes e5cgjh8vmpyc11_ts__ts { 0% {transform: translate(651.897934px,259.045006px) scale(0.010000,0.010000)} 10% {transform: translate(651.897934px,259.045006px) scale(0.010000,0.010000)} 14.500000% {transform: translate(651.897934px,259.045006px) scale(1.500000,1.500000)} 18.833333% {transform: translate(651.897934px,259.045006px) scale(1,1)} 100% {transform: translate(651.897934px,259.045006px) scale(1,1)} }#e5cgjh8vmpyc11 {animation: e5cgjh8vmpyc11_c_o 4000ms linear infinite normal forwards}@keyframes e5cgjh8vmpyc11_c_o { 0% {opacity: 0} 10% {opacity: 0} 12.833333% {opacity: 1} 100% {opacity: 1} }#e5cgjh8vmpyc12_to {animation: e5cgjh8vmpyc12_to__to 4000ms linear infinite normal forwards}@keyframes e5cgjh8vmpyc12_to__to { 0% {transform: translate(644.212026px,-12901.699775px)} 35% {transform: translate(636.956987px,257.875798px)} 38.333333% {transform: translate(252.852537px,257.875798px)} 39.666667% {transform: translate(207.211943px,257.875798px)} 41% {transform: translate(252.852537px,257.875798px)} 42.166667% {transform: translate(235.352537px,257.875798px)} 42.333333% {transform: translate(232.852537px,257.875798px)} 43.333333% {transform: translate(252.852537px,257.875798px)} 100% {transform: translate(252.852537px,257.875798px)} }#e5cgjh8vmpyc12 {animation: e5cgjh8vmpyc12_c_o 4000ms linear infinite normal forwards}@keyframes e5cgjh8vmpyc12_c_o { 0% {opacity: 0} 30.833333% {opacity: 0} 35.500000% {opacity: 0} 36.666667% {opacity: 1} 43.333333% {opacity: 1} 100% {opacity: 1} }#e5cgjh8vmpyc22_tr {animation: e5cgjh8vmpyc22_tr__tr 4000ms linear infinite normal forwards}@keyframes e5cgjh8vmpyc22_tr__tr { 0% {transform: translate(636.956987px,272.736998px) rotate(0deg)} 21.666667% {transform: translate(636.956987px,272.736998px) rotate(0deg)} 26.666667% {transform: translate(636.956987px,272.736998px) rotate(360deg)} 100% {transform: translate(636.956987px,272.736998px) rotate(360deg)} }#e5cgjh8vmpyc22_ts {animation: e5cgjh8vmpyc22_ts__ts 4000ms linear infinite normal forwards}@keyframes e5cgjh8vmpyc22_ts__ts { 0% {transform: scale(1,1)} 28.333333% {transform: scale(1,1)} 30% {transform: scale(0.500000,0.500000)} 31.666667% {transform: scale(1,1)} 100% {transform: scale(1,1)} }#e5cgjh8vmpyc22 {animation: e5cgjh8vmpyc22_c_o 4000ms linear infinite normal forwards}@keyframes e5cgjh8vmpyc22_c_o { 0% {opacity: 0} 21.666667% {opacity: 0} 30% {opacity: 1} 100% {opacity: 1} }]]></style><g id="e5cgjh8vmpyc2" clip-rule="evenodd"><rect id="e5cgjh8vmpyc3" width="1270" height="507.990000" rx="0" ry="0" transform="matrix(1 0 0 1 -0.01000000000000 -0.01000000000000)" clip-rule="evenodd" fill="none" fill-rule="evenodd" stroke="none" stroke-width="1"/><rect id="e5cgjh8vmpyc4" width="1270" height="507.990000" rx="254" ry="254" transform="matrix(1 0 0 1 -0.01000000000000 -0.01000000000000)" clip-rule="evenodd" fill="rgb(22,22,22)" fill-rule="evenodd" stroke="none" stroke-width="1"/><g id="e5cgjh8vmpyc5" clip-rule="evenodd"><g id="e5cgjh8vmpyc6_to" transform="translate(-0.003006,-488.517602)"><path id="e5cgjh8vmpyc6" d="M639.510000,44.990000C755.570000,46.530000,848.440000,136.800000,846.980000,246.870000C845.510000,356.780000,750.300000,444.600000,634.240000,443.060000C518.280000,441.590000,425.480000,351.230000,426.940000,241.320000C428.330000,131.340000,523.540000,43.520000,639.510000,44.990000L639.510000,44.990000Z" transform="translate(0,0)" clip-rule="evenodd" fill="rgb(255,255,255)" fill-rule="evenodd" stroke="none" stroke-width="1"/></g><g id="e5cgjh8vmpyc7_to" transform="translate(636.956987,253.985000)"><g id="e5cgjh8vmpyc7" transform="translate(-1025.716461,-248.920837)" opacity="0"><path id="e5cgjh8vmpyc8" d="M871.580000,155.530000L868.220000,155.470000C867.960000,171.860000,865.770000,285,866.560000,292.080000C867.490000,301.610000,865.640000,311.300000,872.130000,322.080000C885.480000,344.780000,924.590000,342.570000,941.540000,330.420000C949.110000,325.100000,948.440000,320.300000,944.220000,313.410000C943.230000,311.900000,942.850000,310.940000,941.710000,309.450000C940.560000,307.950000,939.290000,307.120000,938.860000,305.180000C936.730000,306.690000,938.330000,305.950000,936.610000,307.510000C923.890000,319.100000,892.860000,328.240000,893.380000,291.280000L894.300000,219.400000L940.040000,220.020000L940.330000,198.380000L894.600000,197.760000C894.750000,187.030000,896.340000,172.610000,892.970000,164.770000C888.750000,155.080000,878.210000,155.580000,871.580000,155.530000L871.580000,155.530000Z" clip-rule="evenodd" fill="rgb(255,255,255)" fill-rule="evenodd" stroke="none" stroke-width="1"/><path id="e5cgjh8vmpyc9" d="M1109.420000,158.630000L1106.060000,158.570000C1105.800000,174.960000,1103.610000,288.100000,1104.410000,295.180000C1104.760000,298.770000,1104.560000,302.630000,1104.790000,306.710000C1105.550000,319.200000,1110.550000,331.290000,1122.160000,337.050000C1136.560000,344.210000,1156.680000,343.770000,1171.350000,337.970000C1175.530000,336.430000,1184.950000,330.430000,1185.040000,326.170000C1185.130000,321.740000,1183.610000,319.290000,1181.970000,316.430000C1180.990000,314.930000,1180.610000,313.960000,1179.470000,312.470000C1178.320000,310.980000,1177.050000,310.140000,1176.620000,308.200000L1171.690000,312.480000C1169.800000,313.890000,1167.900000,315.140000,1165.760000,316.330000C1148.170000,325.720000,1130.910000,321.590000,1131.300000,294.290000L1132.220000,222.410000L1177.790000,223.040000L1178.090000,201.410000L1132.520000,200.780000C1132.670000,190.040000,1134.180000,175.710000,1130.890000,167.780000C1129.010000,163.460000,1123.980000,159.720000,1118.690000,158.860000C1113.570000,158.160000,1112.120000,158.730000,1109.420000,158.630000L1109.420000,158.630000Z" clip-rule="evenodd" fill="rgb(255,255,255)" fill-rule="evenodd" stroke="none" stroke-width="1"/><path id="e5cgjh8vmpyc10" d="M1006.720000,318.190000C992.620000,317.980000,980.710000,312.730000,980.850000,298.710000C980.970000,284.540000,985.600000,277.650000,1000.710000,272.410000C1014.620000,267.640000,1030.010000,267.620000,1046.240000,267.880000L1045.930000,295.250000C1045.760000,310.170000,1021.230000,318.470000,1006.720000,318.190000L1006.720000,318.190000ZM971.040000,229.960000C973.500000,229.990000,978.550000,226.610000,980.470000,225.680000C983.810000,223.860000,986.290000,222.660000,990.150000,221.470000C1004.950000,216.410000,1035.530000,214,1043.710000,230.350000C1046.840000,236.730000,1046.130000,241.680000,1046.030000,248.890000C1030.050000,248.700000,1027.280000,247.620000,1008.600000,250.440000C995.680000,252.370000,982.630000,256.360000,972.370000,263.470000C958.250000,273.330000,954.280000,283.130000,953.990000,300.420000C953.810000,316.560000,962.100000,327.420000,975.060000,333.750000C992.990000,342.690000,1018.700000,339.650000,1035.230000,330.390000C1039.690000,328.020000,1042.390000,325.010000,1046.270000,322.580000C1047.020000,325.740000,1047.420000,327.030000,1048.950000,329.650000C1050.310000,332.110000,1051.250000,332.800000,1053.810000,334.630000C1062.410000,340.620000,1076.420000,339.210000,1086.300000,337.200000L1086.380000,325.150000C1075.230000,324.940000,1073.240000,323,1072.080000,315.120000C1069.670000,299.440000,1076.830000,246.070000,1069.480000,223.940000C1067.230000,217.110000,1064.450000,212.750000,1059.790000,208.420000L1053.900000,203.910000C1034.190000,192.450000,994.530000,195.100000,975.580000,203.590000C970.870000,205.730000,964.260000,209.120000,964.310000,214.600000C964.260000,218.290000,968.750000,229.920000,971.040000,229.960000L971.040000,229.960000Z" clip-rule="evenodd" fill="rgb(255,255,255)" fill-rule="evenodd" stroke="none" stroke-width="1"/></g></g><g id="e5cgjh8vmpyc11_ts" transform="translate(651.897934,259.045006) scale(0.010000,0.010000)"><g id="e5cgjh8vmpyc11" transform="translate(-651.897934,-259.045006)" opacity="0"><g id="e5cgjh8vmpyc12_to" transform="translate(644.212026,-12901.699775)"><g id="e5cgjh8vmpyc12" style="mix-blend-mode:screen" transform="translate(-252.857437,-257.879410)" opacity="0"><path id="e5cgjh8vmpyc13" d="M114.830000,142.270000C114.700000,151.940000,121.710000,158.850000,132.610000,158.990000C139.990000,159.080000,148.210000,152.170000,148.330000,145.280000L148.410000,140.850000C148.600000,129.210000,130.660000,120.110000,119.790000,131.030000C117.310000,133.620000,114.910000,137.680000,114.830000,142.270000L114.830000,142.270000Z" clip-rule="evenodd" fill="rgb(255,255,255)" fill-rule="evenodd" stroke="none" stroke-width="1"/><path id="e5cgjh8vmpyc14" d="M307.670000,210.970000L385.530000,211.970000L325.120000,284.710000C323.740000,286.420000,304.940000,308.080000,304.940000,309.640000L304.720000,326.690000L420.770000,328.230000C419.920000,324.670000,420.160000,321.470000,419.140000,317.750000C418.040000,314.130000,416.780000,312.070000,414.120000,309.840000C408.820000,305.700000,400.250000,306.250000,390.830000,306.190000C372.880000,305.940000,355.010000,305.770000,337.060000,305.520000L388.380000,244.660000C390.060000,242.440000,391.610000,240.880000,393.370000,238.570000C396.900000,234.280000,418.950000,209,418.950000,207.450000C419.080000,197.780000,420.870000,190.230000,403.670000,190.020000L333.180000,189.110000C316.380000,188.790000,307.850000,193.100000,307.670000,210.970000L307.670000,210.970000Z" clip-rule="evenodd" fill="rgb(255,255,255)" fill-rule="evenodd" stroke="none" stroke-width="1"/><path id="e5cgjh8vmpyc15" d="M166.580000,283.590000C166.500000,289.580000,167.610000,298.030000,169.090000,302.620000C170.480000,306.970000,171.700000,309.770000,174.190000,313.400000C175.070000,314.660000,175.770000,315.440000,176.820000,316.700000C186.140000,328.310000,204.400000,329.770000,218.900000,329.880000C233.330000,330.080000,245.700000,325.640000,256.080000,317.870000C257.820000,316.630000,258.340000,315.700000,260.170000,314.700000L260.050000,326.090000L286.770000,326.430000L288.290000,206.940000C288.530000,190.390000,277,187.660000,263.810000,187.470000C260.690000,187.480000,261.620000,192.510000,261.720000,195.700000C261.340000,224.870000,261.400000,259.100000,260.480000,287.320000C260.130000,297.420000,246.560000,303.890000,237.610000,306.420000C234.540000,307.250000,232.040000,307.950000,228.680000,308.060000C219.180000,308.080000,210.360000,308.400000,201.960000,303.040000C197.210000,300.030000,195.130000,296.450000,193.980000,290.290000C191.800000,277.310000,193.480000,226.930000,193.630000,210.290000C193.740000,201.690000,193.840000,198.980000,190.100000,193.450000C185.030000,186.110000,175.550000,186.460000,167.840000,186.390000L166.580000,283.590000Z" clip-rule="evenodd" fill="rgb(255,255,255)" fill-rule="evenodd" stroke="none" stroke-width="1"/><path id="e5cgjh8vmpyc16" d="M84.950000,369.610000C84.800000,381.910000,87.910000,389.360000,100.860000,389.630000C130.770000,390.050000,142.760000,364.910000,143.080000,339.260000L144.830000,205.830000C145.070000,189.270000,134.080000,185.940000,120.230000,185.790000C117.030000,185.720000,118.160000,191.390000,118.070000,197.210000C117.870000,216.140000,116.730000,339.710000,115.890000,345.160000C113.280000,363.480000,105.920000,368.220000,84.950000,369.610000L84.950000,369.610000Z" clip-rule="evenodd" fill="rgb(255,255,255)" fill-rule="evenodd" stroke="none" stroke-width="1"/></g></g><path id="e5cgjh8vmpyc17" d="M717.940000,252.020000C717.800000,264.480000,717.210000,259.590000,721.790000,265.400000L741.530000,288.080000C742.650000,289.240000,742.910000,289.480000,744.050000,290.810000C745.640000,292.850000,746.940000,294.340000,748.600000,296.130000L771.050000,321.850000C779.090000,331.080000,784.080000,335.560000,798.830000,335.740000C804.400000,335.760000,807.920000,334.260000,812.300000,333.370000C810.210000,329.630000,795.760000,314.040000,791.640000,308.940000C790.150000,307.140000,789.100000,305.880000,787.520000,304L774.930000,289.290000C773.340000,287.250000,772.140000,286.330000,770.650000,284.530000L745.620000,254.930000C749.270000,252.770000,756.620000,244.920000,760.370000,241.600000L789.880000,214.930000C793.620000,211.450000,802.250000,204.430000,804.680000,201.020000C802.380000,197.870000,795.150000,194.500000,789.420000,194.480000C776.220000,194.300000,761.890000,210.800000,751.280000,220.560000C748.930000,222.480000,717.990000,249.880000,717.940000,252.020000L717.940000,252.020000Z" clip-rule="evenodd" fill="rgb(0,0,0)" fill-rule="evenodd" stroke="none" stroke-width="1"/><path id="e5cgjh8vmpyc18" d="M686.070000,126.970000L683.300000,331.710000L710.180000,332.040000L712.670000,143.210000C712.830000,132.640000,704.660000,125.300000,693.340000,125.100000L687.520000,125C686.640000,125.300000,686.090000,125.740000,686.070000,126.970000L686.070000,126.970000Z" clip-rule="evenodd" fill="rgb(0,0,0)" fill-rule="evenodd" stroke="none" stroke-width="1"/><path id="e5cgjh8vmpyc19" d="M536.410000,194.250000L569.490000,287.450000C570.460000,290.190000,571.280000,293.090000,572.500000,296.050000C574.680000,301.590000,576.470000,307.380000,578.510000,313.090000L584.280000,330.390000L595.020000,330.540000C590.850000,338.300000,587.550000,358.790000,576.190000,368.330000C574.940000,369.380000,571.680000,371.280000,570,371.950000C558.460000,376.510000,547.960000,370.200000,540.900000,365.430000C537.900000,370.500000,529.960000,379.540000,535.540000,387.340000C537.770000,390.740000,546.260000,394.620000,556.870000,395.600000L565.230000,395.630000C580.240000,394.650000,597.440000,387.080000,607.370000,364.920000C608.470000,362.480000,609.270000,360.720000,610.370000,358.280000L618.560000,337.200000C620.440000,332.680000,621.980000,327.840000,623.770000,323.070000L650.500000,252.910000C651.780000,249.390000,671.270000,199.770000,671.400000,195.990000C666.090000,194.810000,661.740000,191.690000,652.250000,194.830000C641.050000,198.300000,637.530000,213.320000,634.030000,222.760000L602.790000,307.670000L580.510000,238.450000C578.470000,232.580000,576.960000,227.510000,575,221.550000C573.340000,216.650000,571.130000,209.070000,568.830000,204.520000C563.510000,194,557.160000,191.730000,546.470000,192.390000C541.740000,192.820000,539.930000,194.140000,536.410000,194.250000L536.410000,194.250000Z" clip-rule="evenodd" fill="rgb(0,0,0)" fill-rule="evenodd" stroke="none" stroke-width="1"/><path id="e5cgjh8vmpyc20" d="M491.500000,304.970000C491.210000,329.880000,506.230000,333.410000,526.160000,330.930000C529.410000,330.420000,530.110000,329.810000,532.730000,329.670000L532.880000,318.930000C530.990000,318.790000,528.670000,318.420000,526.280000,318.150000C519.030000,317.230000,518.230000,311.540000,518.260000,304.740000L520.130000,161.640000C520.300000,146.730000,524.330000,122.840000,501.220000,122.630000L493.760000,122.460000L491.500000,304.970000Z" clip-rule="evenodd" fill="rgb(0,0,0)" fill-rule="evenodd" stroke="none" stroke-width="1"/></g></g><g id="e5cgjh8vmpyc21"/><g id="e5cgjh8vmpyc22_tr" transform="translate(636.956987,272.736998) rotate(0)"><g id="e5cgjh8vmpyc22_ts" transform="scale(1,1)"><g id="e5cgjh8vmpyc22" transform="translate(-630.202259,-292.262964)" opacity="0"><path id="e5cgjh8vmpyc23" d="M805.650000,412.840000L822.940000,429.590000C829.600000,436.030000,829.420000,446.280000,822.630000,452.460000C815.930000,458.720000,805.190000,458.570000,798.540000,452.130000L781.240000,435.380000L763.760000,460.250000C762.400000,462.290000,759.990000,463.240000,757.600000,462.960000C754.960000,462.620000,753.080000,461.080000,752.300000,458.830000L714.910000,355.710000C714.210000,353.370000,714.810000,350.960000,716.600000,349.310000C718.400000,347.660000,720.980000,347.020000,723.410000,347.960000L831.220000,386.070000C833.560000,386.920000,835.220000,388.880000,835.350000,391.330000C835.640000,393.610000,834.540000,395.880000,832.390000,397.060000L805.650000,412.840000Z" clip-rule="evenodd" fill="rgb(255,255,255)" fill-rule="evenodd" stroke="none" stroke-width="1"/><path id="e5cgjh8vmpyc24" d="M828.740000,391.600000L720.930000,353.490000L758.320000,456.610000L780.140000,425.530000L803.300000,447.860000C807.360000,451.810000,813.920000,451.950000,818.140000,448.110000C822.350000,444.280000,822.420000,437.970000,818.270000,433.940000L795.350000,411.680000L828.740000,391.600000Z" clip-rule="evenodd" fill="rgb(0,0,0)" fill-rule="evenodd" stroke="none" stroke-width="1"/></g></g></g></g></g></svg>